<mxfile host="app.diagrams.net" agent="Mozilla/5.0 (Windows NT 10.0; Win64; x64; rv:142.0) Gecko/20100101 Firefox/142.0" version="28.2.1">
  <diagram id="5kp69Q0G-Fm7u75-InN5" name="Página-1">
    <mxGraphModel dx="2222" dy="1002" grid="1" gridSize="10" guides="1" tooltips="1" connect="1" arrows="1" fold="1" page="1" pageScale="1" pageWidth="1169" pageHeight="827" math="0" shadow="0">
      <root>
        <mxCell id="0" />
        <mxCell id="1" parent="0" />
        <object placeholders="1" c4Name="Cliente de SBI" c4Type="Person" c4Description="Cliente de la entidad financiera con cuenta creada" label="&lt;font style=&quot;font-size: 16px&quot;&gt;&lt;b&gt;%c4Name%&lt;/b&gt;&lt;/font&gt;&lt;div&gt;[%c4Type%]&lt;/div&gt;&lt;br&gt;&lt;div&gt;&lt;font style=&quot;font-size: 11px&quot;&gt;&lt;font&gt;%c4Description%&lt;/font&gt;&lt;/font&gt;&lt;/div&gt;" id="Gt60kAXMN_H7wfqFXC4O-1">
          <mxCell style="html=1;fontSize=11;dashed=0;whiteSpace=wrap;fillColor=#d5e8d4;strokeColor=#82b366;shape=mxgraph.c4.person2;align=center;metaEdit=1;points=[[0.5,0,0],[1,0.5,0],[1,0.75,0],[0.75,1,0],[0.5,1,0],[0.25,1,0],[0,0.75,0],[0,0.5,0]];resizable=0;gradientColor=#97d077;fontColor=default;" parent="1" vertex="1">
            <mxGeometry x="404" y="10" width="200" height="180" as="geometry" />
          </mxCell>
        </object>
        <object placeholders="1" c4Name="Administrador del SBI" c4Type="Person" c4Description="Funcionarios de la entidad financiera que cumplen los roles de administradores u operadores" label="&lt;font style=&quot;font-size: 16px&quot;&gt;&lt;b&gt;%c4Name%&lt;/b&gt;&lt;/font&gt;&lt;div&gt;[%c4Type%]&lt;/div&gt;&lt;br&gt;&lt;div&gt;&lt;font style=&quot;font-size: 11px&quot;&gt;&lt;font&gt;%c4Description%&lt;/font&gt;&lt;/font&gt;&lt;/div&gt;" id="Gt60kAXMN_H7wfqFXC4O-2">
          <mxCell style="html=1;fontSize=11;dashed=0;whiteSpace=wrap;fillColor=#fff2cc;strokeColor=#d6b656;shape=mxgraph.c4.person2;align=center;metaEdit=1;points=[[0.5,0,0],[1,0.5,0],[1,0.75,0],[0.75,1,0],[0.5,1,0],[0.25,1,0],[0,0.75,0],[0,0.5,0]];resizable=0;gradientColor=#ffd966;fontColor=default;" parent="1" vertex="1">
            <mxGeometry x="34" y="280" width="200" height="180" as="geometry" />
          </mxCell>
        </object>
        <object placeholders="1" c4Name="SMS Gateway" c4Type="Software System" c4Description="Sistema para notificación vía SMS" label="&lt;font style=&quot;font-size: 16px&quot;&gt;&lt;b&gt;%c4Name%&lt;/b&gt;&lt;/font&gt;&lt;div&gt;[%c4Type%]&lt;/div&gt;&lt;br&gt;&lt;div&gt;&lt;font style=&quot;font-size: 11px&quot;&gt;&lt;font&gt;%c4Description%&lt;/font&gt;&lt;/font&gt;&lt;/div&gt;" id="Gt60kAXMN_H7wfqFXC4O-4">
          <mxCell style="rounded=1;html=1;labelBackgroundColor=none;fillColor=#fad7ac;align=center;arcSize=10;strokeColor=#b46504;metaEdit=1;resizable=0;points=[[0.25,0,0],[0.5,0,0],[0.75,0,0],[1,0.25,0],[1,0.5,0],[1,0.75,0],[0.75,1,0],[0.5,1,0],[0.25,1,0],[0,0.75,0],[0,0.5,0],[0,0.25,0]];labelBorderColor=none;textShadow=0;whiteSpace=wrap;" parent="1" vertex="1">
            <mxGeometry x="896" y="40" width="240" height="120" as="geometry" />
          </mxCell>
        </object>
        <object placeholders="1" c4Name="Servicio de Correo Electrónico" c4Type="Software System" c4Description="Sistema para notificación vía Correo Electrónico" label="&lt;font style=&quot;font-size: 16px&quot;&gt;&lt;b&gt;%c4Name%&lt;/b&gt;&lt;/font&gt;&lt;div&gt;[%c4Type%]&lt;/div&gt;&lt;br&gt;&lt;div&gt;&lt;font style=&quot;font-size: 11px&quot;&gt;&lt;font&gt;%c4Description%&lt;/font&gt;&lt;/font&gt;&lt;/div&gt;" id="Gt60kAXMN_H7wfqFXC4O-5">
          <mxCell style="rounded=1;whiteSpace=wrap;html=1;labelBackgroundColor=none;fillColor=#fad9d5;align=center;arcSize=10;strokeColor=#ae4132;metaEdit=1;resizable=0;points=[[0.25,0,0],[0.5,0,0],[0.75,0,0],[1,0.25,0],[1,0.5,0],[1,0.75,0],[0.75,1,0],[0.5,1,0],[0.25,1,0],[0,0.75,0],[0,0.5,0],[0,0.25,0]];labelBorderColor=none;textShadow=0;" parent="1" vertex="1">
            <mxGeometry x="896" y="250" width="240" height="120" as="geometry" />
          </mxCell>
        </object>
        <object placeholders="1" c4Name="Sistema de Pagos Interbancarios - BCE" c4Type="Software System" c4Description="Realizar Transferencias Interbancarias&#xa;en Batch usando plataforma del BCE" label="&lt;font style=&quot;font-size: 16px&quot;&gt;&lt;b&gt;%c4Name%&lt;/b&gt;&lt;/font&gt;&lt;div&gt;[%c4Type%]&lt;/div&gt;&lt;br&gt;&lt;div&gt;&lt;font style=&quot;font-size: 11px&quot;&gt;&lt;font&gt;%c4Description%&lt;/font&gt;&lt;/font&gt;&lt;/div&gt;" id="Gt60kAXMN_H7wfqFXC4O-6">
          <mxCell style="rounded=1;whiteSpace=wrap;html=1;labelBackgroundColor=none;fillColor=#d0cee2;align=center;arcSize=10;strokeColor=#56517e;metaEdit=1;resizable=0;points=[[0.25,0,0],[0.5,0,0],[0.75,0,0],[1,0.25,0],[1,0.5,0],[1,0.75,0],[0.75,1,0],[0.5,1,0],[0.25,1,0],[0,0.75,0],[0,0.5,0],[0,0.25,0]];fontColor=default;" parent="1" vertex="1">
            <mxGeometry x="896" y="450" width="240" height="120" as="geometry" />
          </mxCell>
        </object>
        <object placeholders="1" c4Name="CRM Bancario" c4Type="Software System" c4Description="Sistema de información especializado de clientes" label="&lt;font style=&quot;font-size: 16px&quot;&gt;&lt;b&gt;%c4Name%&lt;/b&gt;&lt;/font&gt;&lt;div&gt;[%c4Type%]&lt;/div&gt;&lt;br&gt;&lt;div&gt;&lt;font style=&quot;font-size: 11px&quot;&gt;&lt;font&gt;%c4Description%&lt;/font&gt;&lt;/font&gt;&lt;/div&gt;" id="Gt60kAXMN_H7wfqFXC4O-7">
          <mxCell style="rounded=1;whiteSpace=wrap;html=1;labelBackgroundColor=none;fillColor=#dae8fc;align=center;arcSize=10;strokeColor=#6c8ebf;metaEdit=1;resizable=0;points=[[0.25,0,0],[0.5,0,0],[0.75,0,0],[1,0.25,0],[1,0.5,0],[1,0.75,0],[0.75,1,0],[0.5,1,0],[0.25,1,0],[0,0.75,0],[0,0.5,0],[0,0.25,0]];gradientColor=#7ea6e0;fontColor=default;" parent="1" vertex="1">
            <mxGeometry x="84" y="610" width="240" height="120" as="geometry" />
          </mxCell>
        </object>
        <object placeholders="1" c4Name="Core Bancario" c4Type="Software System" c4Description="Description of external software system.Core bancario, información de clientes, cuentas y transacciones" label="&lt;font style=&quot;font-size: 16px&quot;&gt;&lt;b&gt;%c4Name%&lt;/b&gt;&lt;/font&gt;&lt;div&gt;[%c4Type%]&lt;/div&gt;&lt;br&gt;&lt;div&gt;&lt;font style=&quot;font-size: 11px&quot;&gt;&lt;font&gt;%c4Description%&lt;/font&gt;&lt;/font&gt;&lt;/div&gt;" id="Gt60kAXMN_H7wfqFXC4O-8">
          <mxCell style="rounded=1;whiteSpace=wrap;html=1;labelBackgroundColor=none;fillColor=#d5e8d4;align=center;arcSize=10;strokeColor=#82b366;metaEdit=1;resizable=0;points=[[0.25,0,0],[0.5,0,0],[0.75,0,0],[1,0.25,0],[1,0.5,0],[1,0.75,0],[0.75,1,0],[0.5,1,0],[0.25,1,0],[0,0.75,0],[0,0.5,0],[0,0.25,0]];gradientColor=#97d077;fontColor=default;" parent="1" vertex="1">
            <mxGeometry x="374" y="610" width="240" height="120" as="geometry" />
          </mxCell>
        </object>
        <object placeholders="1" c4Name="Sistema de Transferencias - BANRED" c4Type="Software System" c4Description="Gestión de transferencias en tiempo real usando plataforma de BANRED" label="&lt;font style=&quot;font-size: 16px&quot;&gt;&lt;b&gt;%c4Name%&lt;/b&gt;&lt;/font&gt;&lt;div&gt;[%c4Type%]&lt;/div&gt;&lt;br&gt;&lt;div&gt;&lt;font style=&quot;font-size: 11px&quot;&gt;&lt;font&gt;%c4Description%&lt;/font&gt;&lt;/font&gt;&lt;/div&gt;" id="Gt60kAXMN_H7wfqFXC4O-9">
          <mxCell style="rounded=1;whiteSpace=wrap;html=1;labelBackgroundColor=none;fillColor=#f5f5f5;align=center;arcSize=10;strokeColor=#666666;metaEdit=1;resizable=0;points=[[0.25,0,0],[0.5,0,0],[0.75,0,0],[1,0.25,0],[1,0.5,0],[1,0.75,0],[0.75,1,0],[0.5,1,0],[0.25,1,0],[0,0.75,0],[0,0.5,0],[0,0.25,0]];gradientColor=#b3b3b3;fontColor=default;" parent="1" vertex="1">
            <mxGeometry x="896" y="650" width="240" height="120" as="geometry" />
          </mxCell>
        </object>
        <object placeholders="1" c4Type="Relationship" c4Description="Acceder a la información &#xa;de sus cuentas, servicios &#xa;de transferencia y pagos" label="&lt;div style=&quot;text-align: left&quot;&gt;&lt;div style=&quot;text-align: center&quot;&gt;&lt;b&gt;%c4Description%&lt;/b&gt;&lt;/div&gt;" id="Gt60kAXMN_H7wfqFXC4O-12">
          <mxCell style="endArrow=blockThin;html=1;fontSize=10;fontColor=#404040;strokeWidth=1;endFill=1;strokeColor=light-dark(#000000,#7D7D7D);elbow=vertical;metaEdit=1;endSize=14;startSize=14;jumpStyle=line;jumpSize=10;rounded=0;edgeStyle=orthogonalEdgeStyle;exitX=0.444;exitY=1.022;exitDx=0;exitDy=0;exitPerimeter=0;curved=0;dashed=1;" parent="1" source="Gt60kAXMN_H7wfqFXC4O-1" target="Gt60kAXMN_H7wfqFXC4O-3" edge="1">
            <mxGeometry width="240" relative="1" as="geometry">
              <mxPoint x="324" y="240" as="sourcePoint" />
              <mxPoint x="564" y="240" as="targetPoint" />
            </mxGeometry>
          </mxCell>
        </object>
        <object placeholders="1" c4Type="Relationship" c4Description="Enviar notificación&#xa;vía SMS" label="&lt;div style=&quot;text-align: left&quot;&gt;&lt;div style=&quot;text-align: center&quot;&gt;&lt;b&gt;%c4Description%&lt;/b&gt;&lt;/div&gt;" id="Gt60kAXMN_H7wfqFXC4O-13">
          <mxCell style="endArrow=blockThin;html=1;fontSize=10;fontColor=#404040;strokeWidth=1;endFill=1;strokeColor=light-dark(#000000,#7D7D7D);elbow=vertical;metaEdit=1;endSize=14;startSize=14;jumpStyle=line;jumpSize=10;rounded=0;edgeStyle=orthogonalEdgeStyle;entryX=0;entryY=0.75;entryDx=0;entryDy=0;entryPerimeter=0;exitX=1;exitY=0.25;exitDx=0;exitDy=0;exitPerimeter=0;dashed=1;align=center;verticalAlign=middle;fontFamily=Helvetica;labelBackgroundColor=default;curved=0;" parent="1" source="Gt60kAXMN_H7wfqFXC4O-3" target="Gt60kAXMN_H7wfqFXC4O-4" edge="1">
            <mxGeometry width="240" relative="1" as="geometry">
              <mxPoint x="664" y="330" as="sourcePoint" />
              <mxPoint x="1154" y="-10" as="targetPoint" />
              <Array as="points">
                <mxPoint x="764" y="380" />
                <mxPoint x="764" y="130" />
              </Array>
            </mxGeometry>
          </mxCell>
        </object>
        <object placeholders="1" c4Type="Relationship" c4Description="Enviar notificación&#xa;vía Email" label="&lt;div style=&quot;text-align: left&quot;&gt;&lt;div style=&quot;text-align: center&quot;&gt;&lt;b&gt;%c4Description%&lt;/b&gt;&lt;/div&gt;" id="Gt60kAXMN_H7wfqFXC4O-14">
          <mxCell style="endArrow=blockThin;html=1;fontSize=10;fontColor=#404040;strokeWidth=1;endFill=1;strokeColor=light-dark(#000000,#7D7D7D);elbow=vertical;metaEdit=1;endSize=14;startSize=14;jumpStyle=line;jumpSize=10;rounded=0;edgeStyle=orthogonalEdgeStyle;entryX=0;entryY=0.5;entryDx=0;entryDy=0;entryPerimeter=0;exitX=1;exitY=0.5;exitDx=0;exitDy=0;exitPerimeter=0;dashed=1;align=center;verticalAlign=middle;fontFamily=Helvetica;labelBackgroundColor=default;curved=0;" parent="1" source="Gt60kAXMN_H7wfqFXC4O-3" target="Gt60kAXMN_H7wfqFXC4O-5" edge="1">
            <mxGeometry x="0.2174" width="240" relative="1" as="geometry">
              <mxPoint x="484" y="440" as="sourcePoint" />
              <mxPoint x="724" y="440" as="targetPoint" />
              <Array as="points">
                <mxPoint x="844" y="410" />
                <mxPoint x="844" y="310" />
              </Array>
              <mxPoint as="offset" />
            </mxGeometry>
          </mxCell>
        </object>
        <mxCell id="Gt60kAXMN_H7wfqFXC4O-15" value="" style="edgeLabel;html=1;align=center;verticalAlign=middle;resizable=0;points=[];rounded=0;dashed=1;strokeColor=light-dark(#000000,#7D7D7D);strokeWidth=1;fontFamily=Helvetica;fontSize=10;fontColor=#404040;labelBackgroundColor=default;" parent="Gt60kAXMN_H7wfqFXC4O-14" vertex="1" connectable="0">
          <mxGeometry x="0.4093" y="2" relative="1" as="geometry">
            <mxPoint as="offset" />
          </mxGeometry>
        </mxCell>
        <object placeholders="1" c4Type="Relationship" c4Description="Realizar&#xa;Transferencias &#xa;Interbancarias&#xa;vía Batch" label="&lt;div style=&quot;text-align: left&quot;&gt;&lt;div style=&quot;text-align: center&quot;&gt;&lt;b&gt;%c4Description%&lt;/b&gt;&lt;/div&gt;" id="Gt60kAXMN_H7wfqFXC4O-16">
          <mxCell style="endArrow=blockThin;html=1;fontSize=10;fontColor=#404040;strokeWidth=1;endFill=1;strokeColor=light-dark(#000000,#7D7D7D);elbow=vertical;metaEdit=1;endSize=14;startSize=14;jumpStyle=line;jumpSize=10;rounded=0;edgeStyle=orthogonalEdgeStyle;exitX=1;exitY=0.5;exitDx=0;exitDy=0;exitPerimeter=0;entryX=0;entryY=0.5;entryDx=0;entryDy=0;entryPerimeter=0;dashed=1;align=center;verticalAlign=middle;fontFamily=Helvetica;labelBackgroundColor=default;curved=0;" parent="1" source="Gt60kAXMN_H7wfqFXC4O-3" target="Gt60kAXMN_H7wfqFXC4O-6" edge="1">
            <mxGeometry x="0.2609" width="240" relative="1" as="geometry">
              <mxPoint x="484" y="560" as="sourcePoint" />
              <mxPoint x="724" y="560" as="targetPoint" />
              <Array as="points">
                <mxPoint x="844" y="410" />
                <mxPoint x="844" y="510" />
              </Array>
              <mxPoint as="offset" />
            </mxGeometry>
          </mxCell>
        </object>
        <object placeholders="1" c4Type="Relationship" c4Description="Realizar&#xa;Transferencias &#xa;Interbancarias &#xa;en Línea" label="&lt;div style=&quot;text-align: left&quot;&gt;&lt;div style=&quot;text-align: center&quot;&gt;&lt;b&gt;%c4Description%&lt;/b&gt;&lt;/div&gt;" id="Gt60kAXMN_H7wfqFXC4O-17">
          <mxCell style="endArrow=blockThin;html=1;fontSize=10;fontColor=#404040;strokeWidth=1;endFill=1;strokeColor=light-dark(#000000,#7D7D7D);elbow=vertical;metaEdit=1;endSize=14;startSize=14;jumpStyle=line;jumpSize=10;rounded=0;edgeStyle=orthogonalEdgeStyle;exitX=1;exitY=0.75;exitDx=0;exitDy=0;exitPerimeter=0;dashed=1;align=center;verticalAlign=middle;fontFamily=Helvetica;labelBackgroundColor=default;curved=0;" parent="1" source="Gt60kAXMN_H7wfqFXC4O-3" edge="1">
            <mxGeometry width="240" relative="1" as="geometry">
              <mxPoint x="484" y="560" as="sourcePoint" />
              <mxPoint x="964" y="700" as="targetPoint" />
              <Array as="points">
                <mxPoint x="764" y="440" />
                <mxPoint x="764" y="700" />
              </Array>
            </mxGeometry>
          </mxCell>
        </object>
        <object placeholders="1" c4Type="Relationship" c4Description="Notificación&#xa;vía SMS" label="&lt;div style=&quot;text-align: left&quot;&gt;&lt;div style=&quot;text-align: center&quot;&gt;&lt;b&gt;%c4Description%&lt;/b&gt;&lt;/div&gt;" id="Gt60kAXMN_H7wfqFXC4O-18">
          <mxCell style="endArrow=blockThin;html=1;fontSize=10;fontColor=#404040;strokeWidth=1;endFill=1;strokeColor=light-dark(#000000,#7D7D7D);elbow=vertical;metaEdit=1;endSize=14;startSize=14;jumpStyle=line;jumpSize=10;rounded=0;edgeStyle=orthogonalEdgeStyle;exitX=0;exitY=0.25;exitDx=0;exitDy=0;exitPerimeter=0;entryX=1;entryY=0.5;entryDx=0;entryDy=0;entryPerimeter=0;dashed=1;align=center;verticalAlign=middle;fontFamily=Helvetica;labelBackgroundColor=default;curved=0;" parent="1" source="Gt60kAXMN_H7wfqFXC4O-4" target="Gt60kAXMN_H7wfqFXC4O-1" edge="1">
            <mxGeometry width="240" relative="1" as="geometry">
              <mxPoint x="714" y="90" as="sourcePoint" />
              <mxPoint x="624" y="180" as="targetPoint" />
              <Array as="points">
                <mxPoint x="744" y="70" />
                <mxPoint x="744" y="100" />
              </Array>
            </mxGeometry>
          </mxCell>
        </object>
        <object placeholders="1" c4Type="Relationship" c4Description="Notificación &#xa;vía Email" label="&lt;div style=&quot;text-align: left&quot;&gt;&lt;div style=&quot;text-align: center&quot;&gt;&lt;b&gt;%c4Description%&lt;/b&gt;&lt;/div&gt;" id="Gt60kAXMN_H7wfqFXC4O-19">
          <mxCell style="endArrow=blockThin;html=1;fontSize=10;fontColor=#404040;strokeWidth=1;endFill=1;strokeColor=light-dark(#000000,#7D7D7D);elbow=vertical;metaEdit=1;endSize=14;startSize=14;jumpStyle=line;jumpSize=10;rounded=0;edgeStyle=orthogonalEdgeStyle;exitX=0;exitY=0.25;exitDx=0;exitDy=0;exitPerimeter=0;entryX=0.991;entryY=0.834;entryDx=0;entryDy=0;entryPerimeter=0;dashed=1;align=center;verticalAlign=middle;fontFamily=Helvetica;labelBackgroundColor=default;curved=0;" parent="1" source="Gt60kAXMN_H7wfqFXC4O-5" target="Gt60kAXMN_H7wfqFXC4O-1" edge="1">
            <mxGeometry x="0.1797" y="-10" width="240" relative="1" as="geometry">
              <mxPoint x="694" y="170" as="sourcePoint" />
              <mxPoint x="644" y="80" as="targetPoint" />
              <Array as="points">
                <mxPoint x="664" y="280" />
                <mxPoint x="664" y="160" />
              </Array>
              <mxPoint as="offset" />
            </mxGeometry>
          </mxCell>
        </object>
        <object placeholders="1" c4Type="Relationship" c4Description="Obtener información &#xa;de cuentas y transferencias&#xa;Internas" label="&lt;div style=&quot;text-align: left&quot;&gt;&lt;div style=&quot;text-align: center&quot;&gt;&lt;b&gt;%c4Description%&lt;/b&gt;&lt;/div&gt;" id="Gt60kAXMN_H7wfqFXC4O-20">
          <mxCell style="endArrow=blockThin;html=1;fontSize=10;fontColor=#404040;strokeWidth=1;endFill=1;strokeColor=light-dark(#000000,#7D7D7D);elbow=vertical;metaEdit=1;endSize=14;startSize=14;jumpStyle=line;jumpSize=10;rounded=0;edgeStyle=orthogonalEdgeStyle;exitX=0.5;exitY=1;exitDx=0;exitDy=0;exitPerimeter=0;entryX=0.5;entryY=0;entryDx=0;entryDy=0;entryPerimeter=0;dashed=1;align=center;verticalAlign=middle;fontFamily=Helvetica;labelBackgroundColor=default;curved=0;" parent="1" source="Gt60kAXMN_H7wfqFXC4O-3" target="Gt60kAXMN_H7wfqFXC4O-8" edge="1">
            <mxGeometry width="240" relative="1" as="geometry">
              <mxPoint x="484" y="520" as="sourcePoint" />
              <mxPoint x="614" y="600" as="targetPoint" />
            </mxGeometry>
          </mxCell>
        </object>
        <object placeholders="1" c4Type="Relationship" c4Description="Obtener información&#xa;especifica del cliente" label="&lt;div style=&quot;text-align: left&quot;&gt;&lt;div style=&quot;text-align: center&quot;&gt;&lt;b&gt;%c4Description%&lt;/b&gt;&lt;/div&gt;" id="Gt60kAXMN_H7wfqFXC4O-21">
          <mxCell style="endArrow=blockThin;html=1;fontSize=10;fontColor=#404040;strokeWidth=1;endFill=1;strokeColor=light-dark(#000000,#7D7D7D);elbow=vertical;metaEdit=1;endSize=14;startSize=14;jumpStyle=line;jumpSize=10;rounded=0;edgeStyle=orthogonalEdgeStyle;entryX=0.5;entryY=0;entryDx=0;entryDy=0;entryPerimeter=0;exitX=0.118;exitY=1;exitDx=0;exitDy=0;exitPerimeter=0;dashed=1;align=center;verticalAlign=middle;fontFamily=Helvetica;labelBackgroundColor=default;curved=0;" parent="1" source="Gt60kAXMN_H7wfqFXC4O-3" target="Gt60kAXMN_H7wfqFXC4O-7" edge="1">
            <mxGeometry x="-0.0027" width="240" relative="1" as="geometry">
              <mxPoint x="334" y="500" as="sourcePoint" />
              <mxPoint x="434" y="490" as="targetPoint" />
              <Array as="points">
                <mxPoint x="402" y="562" />
                <mxPoint x="204" y="562" />
              </Array>
              <mxPoint as="offset" />
            </mxGeometry>
          </mxCell>
        </object>
        <object placeholders="1" c4Type="Relationship" c4Description="Gestionar la &#xa;Administración&#xa;y Operación" label="&lt;div style=&quot;text-align: left&quot;&gt;&lt;div style=&quot;text-align: center&quot;&gt;&lt;b&gt;%c4Description%&lt;/b&gt;&lt;/div&gt;" id="Gt60kAXMN_H7wfqFXC4O-22">
          <mxCell style="endArrow=blockThin;html=1;fontSize=10;fontColor=#404040;strokeWidth=1;endFill=1;strokeColor=light-dark(#000000,#7D7D7D);elbow=vertical;metaEdit=1;endSize=14;startSize=14;jumpStyle=line;jumpSize=10;rounded=0;edgeStyle=orthogonalEdgeStyle;exitX=1;exitY=0.75;exitDx=0;exitDy=0;exitPerimeter=0;entryX=0;entryY=0.5;entryDx=0;entryDy=0;entryPerimeter=0;dashed=1;align=center;verticalAlign=middle;fontFamily=Helvetica;labelBackgroundColor=default;curved=0;" parent="1" source="Gt60kAXMN_H7wfqFXC4O-2" target="Gt60kAXMN_H7wfqFXC4O-3" edge="1">
            <mxGeometry width="240" relative="1" as="geometry">
              <mxPoint x="194" y="490" as="sourcePoint" />
              <mxPoint x="434" y="490" as="targetPoint" />
            </mxGeometry>
          </mxCell>
        </object>
        <object placeholders="1" c4Name="[System Context] Sistema Bancario vía Internet (SBI)" c4Type="ContainerScopeBoundary" c4Description="Contexto del funcionamiento del sistema " label="&lt;font style=&quot;font-size: 16px&quot;&gt;&lt;b&gt;&lt;div style=&quot;text-align: left&quot;&gt;%c4Name%&lt;/div&gt;&lt;/b&gt;&lt;/font&gt;&lt;div style=&quot;text-align: left&quot;&gt;%c4Description%&lt;/div&gt;" id="Gt60kAXMN_H7wfqFXC4O-26">
          <mxCell style="text;html=1;strokeColor=none;fillColor=none;align=left;verticalAlign=top;whiteSpace=wrap;rounded=0;metaEdit=1;allowArrows=0;resizable=1;rotatable=0;connectable=0;recursiveResize=0;expand=0;pointerEvents=0;points=[[0.25,0,0],[0.5,0,0],[0.75,0,0],[1,0.25,0],[1,0.5,0],[1,0.75,0],[0.75,1,0],[0.5,1,0],[0.25,1,0],[0,0.75,0],[0,0.5,0],[0,0.25,0]];" parent="1" vertex="1">
            <mxGeometry x="54" y="770" width="480" height="40" as="geometry" />
          </mxCell>
        </object>
        <object placeholders="1" c4Name="Sistema Bancario vía Internet (SBI)" c4Type="Software System" c4Description="Permite a los clientes acceder a información de sus cuentas y realizar transferencias y pagos" label="&lt;font style=&quot;font-size: 16px&quot;&gt;&lt;b&gt;%c4Name%&lt;/b&gt;&lt;/font&gt;&lt;div&gt;[%c4Type%]&lt;/div&gt;&lt;br&gt;&lt;div&gt;&lt;font style=&quot;font-size: 11px&quot;&gt;&lt;font color=&quot;#cccccc&quot;&gt;%c4Description%&lt;/font&gt;&lt;/div&gt;" id="Gt60kAXMN_H7wfqFXC4O-3">
          <mxCell style="rounded=1;whiteSpace=wrap;html=1;labelBackgroundColor=none;fillColor=#1061B0;fontColor=#ffffff;align=center;arcSize=10;strokeColor=#0D5091;metaEdit=1;resizable=0;points=[[0.25,0,0],[0.5,0,0],[0.75,0,0],[1,0.25,0],[1,0.5,0],[1,0.75,0],[0.75,1,0],[0.5,1,0],[0.25,1,0],[0,0.75,0],[0,0.5,0],[0,0.25,0]];shadow=1;" parent="1" vertex="1">
            <mxGeometry x="374" y="353" width="240" height="120" as="geometry" />
          </mxCell>
        </object>
        <object placeholders="1" c4Name="[Containers] Diagram title" c4Type="ContainerDiagramTitle" c4Description="Diagram short description" label="&lt;font style=&quot;font-size: 16px&quot;&gt;&lt;b&gt;&lt;div style=&quot;text-align: left&quot;&gt;%c4Name%&lt;/div&gt;&lt;/b&gt;&lt;/font&gt;&lt;div style=&quot;text-align: left&quot;&gt;%c4Description%&lt;/div&gt;" id="otbof2P34LqHgfCJ8Aqd-2">
          <mxCell style="text;html=1;strokeColor=none;fillColor=none;align=left;verticalAlign=top;whiteSpace=wrap;rounded=0;metaEdit=1;allowArrows=0;resizable=1;rotatable=0;connectable=0;recursiveResize=0;expand=0;pointerEvents=0;points=[[0.25,0,0],[0.5,0,0],[0.75,0,0],[1,0.25,0],[1,0.5,0],[1,0.75,0],[0.75,1,0],[0.5,1,0],[0.25,1,0],[0,0.75,0],[0,0.5,0],[0,0.25,0]];" vertex="1" parent="1">
            <mxGeometry x="1320" y="210" width="260" height="40" as="geometry" />
          </mxCell>
        </object>
      </root>
    </mxGraphModel>
  </diagram>
</mxfile>
